<?xml version="1.0" encoding="utf-8"?>
<!-- Generator: Adobe Illustrator 24.0.3, SVG Export Plug-In . SVG Version: 6.00 Build 0)  -->
<svg version="1.1" id="Layer_1" xmlns="http://www.w3.org/2000/svg" xmlns:xlink="http://www.w3.org/1999/xlink" x="0px" y="0px"
	 viewBox="0 0 748.59 207.58" style="enable-background:new 0 0 748.59 207.58;" xml:space="preserve">
<style type="text/css">
	.st0{fill:#134981;}
</style>
<g>
	<g>
		<path class="st0" d="M55.48,103.88c0-23.1,18.32-36.32,36.87-36.32c15.55,0,25.43,9.88,25.43,17.66c0,3.67-2.33,6.22-5.88,6.22
			c-2.78,0-5.33-2-5.33-6.55c0-5.55-5.22-13.88-17.21-13.88c-14.66,0-24.99,10.33-24.99,27.1c0,20.88,14.22,34.98,32.76,34.98
			c8.77,0,14.66-3.55,20.44-10l1.33,1.11c-2.89,5.33-11.99,15.22-27.76,15.22C72.91,139.41,55.48,126.2,55.48,103.88z"/>
		<path class="st0" d="M122.91,114.49c0-14.95,11.56-24.92,24.82-24.92c12.94,0,24.39,9.44,24.39,24.5
			c0,14.95-11.56,24.92-24.82,24.92C134.36,138.99,122.91,129.55,122.91,114.49z M164.38,117.46c0-13.79-8.17-25.35-19.3-25.35
			c-8.17,0-14.42,6.04-14.42,18.98c0,13.68,8.16,25.35,19.3,25.35C158.23,136.45,164.38,130.4,164.38,117.46z"/>
		<path class="st0" d="M255.68,135.28v1.8c-2.12,1.17-3.71,1.8-6.26,1.8c-3.82,0-6.47-1.59-6.47-6.79v-23.44
			c0-8.17-3.71-14.53-11.45-14.53c-7,0-11.98,6.68-11.98,14.53v22.48c0,3.71,1.8,4.88,6.89,5.41v1.8h-21.1v-1.8
			c4.98-0.53,6.79-1.7,6.79-5.41v-22.48c0-8.17-3.71-14.53-11.56-14.53c-7,0-11.88,6.68-11.88,14.53v22.48
			c0,3.71,1.8,4.88,6.79,5.41v1.8h-21v-1.8c4.98-0.53,6.79-1.7,6.79-5.41v-30.75c0-4.77-0.74-6.79-7-6.26v-1.8l10.92-2.54
			c2.02-0.53,3.5,0.53,3.5,3.08c0,4.24,0.64,5.62,2.23,4.24c1.17-1.27,5.51-7.42,14.11-7.42c4.67,0,9.01,1.91,11.77,6.05
			c1.59,2.23,2.65,2.76,4.03,1.48c1.17-0.85,5.62-7.53,14.85-7.53c7.96,0,14.74,5.2,14.74,16.86v24.5
			C250.38,134.75,252.19,136.13,255.68,135.28z"/>
		<path class="st0" d="M310.51,113.33c0,16.54-11.03,25.66-23.01,25.66c-10.82,0-14.74-7.32-14.74-0.96v13.26
			c0,3.71,1.8,4.88,6.79,5.41v1.8h-21v-1.8c4.98-0.53,6.79-1.7,6.79-5.41v-51.12c0-4.67-0.74-6.79-7-6.15v-1.7l10.92-2.54
			c2.02-0.53,3.5,0.53,3.5,2.86v2.76c0,0.74,0.64,1.48,1.8,0.21c1.91-2.33,7.85-6.05,15.06-6.05
			C301.28,89.57,310.51,99.11,310.51,113.33z M302.87,117.67c0-12.83-7.11-22.69-17.29-22.69c-5.52,0-12.83,2.54-12.83,11.35v14.32
			c0,10.92,8.59,15.91,15.8,15.91C297.57,136.55,302.87,129.02,302.87,117.67z"/>
		<path class="st0" d="M408.61,131.25v-24.71c0-11.67-7.42-16.86-15.59-16.86c-9.33,0-14.21,6.15-15.38,7.42
			c-1.59,1.38-2.23,0-2.23-4.24c0-2.54-1.48-3.61-3.5-3.08l-10.92,2.54v1.7c6.26-0.64,7,1.48,7,6.15v27.91
			c0,3.69-1.3,7.08-6.22,7.15c-5.11,0-6.51-3.45-6.51-7.04v-21.65c0-11.14-4.24-16.97-16.54-16.97c-9.76,0-20.47,4.14-20.47,11.24
			c0,2.65,1.38,4.45,3.92,4.45c2.65,0,4.13-1.8,4.13-5.3c0-5.2,2.86-7.96,8.8-7.96c8.91,0,12.73,5.83,12.73,12.94v2.55
			c0,1.91-1.06,2.44-2.23,2.54c-24.6,2.65-30.86,9.23-30.86,17.29c0,8.27,6.68,11.67,13.68,11.67c6.68,0,13.68-2.76,17.82-7.85
			c0.64-0.74,1.18-1.05,1.38,0c0.81,4.34,6.07,7.18,9.89,7.18c1.87,0,24.68,0.03,24.68,0.03v-1.8c-4.98-0.53-6.79-1.7-6.79-5.41
			v-22.48c0-7.85,5.41-14.53,13.15-14.53c8.38,0,12.62,6.36,12.62,14.53v23.44c0,5.2,2.54,6.79,6.36,6.79c2.65,0,4.24-0.63,6.26-1.8
			v-1.7C410.41,136.34,408.61,134.85,408.61,131.25z M347.84,123.51c0,5.73-6.79,11.24-14.42,11.24c-7,0-10.39-4.98-10.39-9.86
			c0-5.41,3.92-10.18,20.57-12.3c3.71-0.42,4.24,1.27,4.24,3.71V123.51z"/>
		<g>
			<path class="st0" d="M501.76,98.57c-9.17-3.25-16.56-6.94-16.56-16.22c0-6.49,5.87-13.01,14.26-13.01l0.07,0
				c11.5-0.1,15.72,6.96,15.72,12.85c0,4.12,1.94,5.57,4.45,5.57c3.21,0,4.99-1.95,4.99-5.26c0-7.03-8.66-15.9-22.72-15.9l-0.01,0
				c-14.02,0-23.49,8.13-23.49,18.31c0,11.53,9.06,17.12,21.71,21.48c9.85,3.47,19.13,5.59,19.13,16.45
				c0,8.84-6.66,13.11-14.72,13.34l-1.42,0.02c-10.85,0-16.06-7.82-16.06-12.84c0-4.12-1.86-5.52-4.37-5.52
				c-3.21,0-4.92,1.91-4.92,5.22c0,7.03,8.36,15.92,22.42,15.92l-0.01,0c13.87,0,26.36-5.48,26.36-19.13
				C526.6,106.18,512.05,102.26,501.76,98.57z"/>
			<path class="st0" d="M548.57,135.46c-4.77,0-6.47-4.35-6.47-9.76V97.14c0-1.38,0.64-2.02,1.91-2.02h9.65v-2.54h-9.65
				c-1.27,0-1.91-0.64-1.91-2.65v-9.44h-2.34c-1.48,7.32-5.41,11.56-11.77,12.83v1.8h4.56c1.27,0,2.12,0.42,2.12,2.02v27.51
				c0,10.39,4.99,13.79,11.56,13.79c4.56,0,7.42-1.59,8.7-2.86l-0.96-1.59C553.34,134.51,551.64,135.46,548.57,135.46z"/>
			<path class="st0" d="M581.33,89.12c-13.26,0-24.82,9.97-24.82,24.92c0,15.06,11.45,24.5,24.39,24.5
				c13.26,0,24.82-9.97,24.82-24.92C605.73,98.56,594.27,89.12,581.33,89.12z M583.56,135.99c-11.14,0-19.3-11.67-19.3-25.35
				c0-12.94,6.26-18.98,14.42-18.98c11.14,0,19.3,11.56,19.3,25.35C597.99,129.95,591.83,135.99,583.56,135.99z"/>
			<path class="st0" d="M638.49,89.22c-10.4-0.22-15.04,5.65-16.63,7.5c-1.48,1.48-2.01,0.53-2.01-3.71c0-2.54-1.48-3.61-3.5-3.08
				l-8.5,1.94v1.7c5.95,2.75,7,9.68,7,14.35v22.77c0,3.71-1.8,4.88-6.79,5.41v1.8h21.21v-1.8c-5.19-0.53-7-1.7-7-5.41V109.9
				c0-9.97,5.19-16.33,11.56-16.33c3.61,0,5.62,2.44,5.62,5.09c0,1.7,1.48,3.29,3.92,3.29c2.54,0,4.45-1.91,4.45-4.67
				C647.83,95.06,646.98,89.41,638.49,89.22z"/>
			<path class="st0" d="M691.52,126.98c-3.5,4.67-8.27,6.05-13.05,6.05c-10.18,0-18.14-6.26-20.36-16.44
				c-0.49-2.36,0.53-3.18,2.44-3.18l12.72-0.21c14-0.32,19.52-2.23,19.52-8.48c0-8.48-7.21-15.59-18.45-15.59
				c-12.73,0-24.39,9.23-24.39,24.71c0,14.95,11.03,24.71,24.28,24.71c10.39,0,16.86-6.68,18.88-10.29L691.52,126.98z M672.64,91.34
				c7.96,0,12.3,4.88,12.3,12.3c0,4.88-3.5,7.21-13.89,7.42l-10.29,0.11c-2.01,0-3.18-0.42-3.08-4.03
				C658.54,97.28,663.73,91.34,672.64,91.34z"/>
		</g>
		<path class="st0" d="M414.28,153.2c0-3.18,2.44-4.98,5.09-4.98c5.62,0,2.23,7.42,6.36,7.42c2.55,0,4.98-4.24,6.79-8.8
			c2.44-6.26,0.74-10.82-0.42-13.89l-12.62-30.65c-2.86-7.11-3.82-8.27-8.38-9.97v-1.8h20.04v1.8c-5.73,1.7-6.36,2.86-3.39,9.97
			l10.6,25.66c0.53,1.06,1.48,1.06,1.91,0l5.73-14.32c7.42-18.56,5.51-19.62-0.64-21.32v-1.8h18.35v1.8
			c-6.05,1.7-7.74,3.08-10.5,9.97l-18.24,44.65c-2.86,6.89-5.09,12.41-12.94,12.41C416.93,159.35,414.28,156.7,414.28,153.2z"/>
	</g>
	<g>
		<path class="st0" d="M130.44,77.33c2.68-0.36,3.55-0.59,3.55-2.23V53.24c0-1.32-0.23-2.05-3.82-2.05c-3.18,0-4.27,0.86-5.5,4.32
			h-0.91l0.68-5.77l2.59,0.14h17.5l2.59-0.14l0.73,5.77h-0.91c-1.27-3.45-2.32-4.32-5.5-4.32c-3.59,0-3.82,0.73-3.82,2.05V75.1
			c0,1.64,0.86,1.86,3.55,2.23v0.77h-10.73V77.33z"/>
		<path class="st0" d="M171.4,76.83v0.73c-0.86,0.5-1.55,0.77-2.68,0.77c-1.64,0-2.73-0.68-2.73-2.91V65.37
			c0-3.36-2.14-6.14-5.41-6.14c-3.32,0-5.64,2.77-5.64,6.14v9.64c0,1.59,0.77,2.09,2.91,2.32v0.77h-9v-0.77
			c2.14-0.23,2.91-0.73,2.91-2.32V52.69c0-1.95-0.32-2.82-3-2.59v-0.68l4.68-1.14c0.86-0.23,1.5,0.23,1.5,1.27v9.04
			c0,1.82,0.27,2.41,0.95,1.82c0.55-0.55,2.59-3.18,6.59-3.18c3.5,0,6.68,2.23,6.68,7.23v10.59
			C169.17,76.6,169.94,77.23,171.4,76.83z"/>
		<path class="st0" d="M190.58,73.96c-0.86,1.55-3.64,4.41-8.09,4.41c-5.68,0-10.41-4.18-10.41-10.59c0-6.64,5-10.59,10.45-10.59
			c4.82,0,7.91,3.05,7.91,6.68c0,2.68-2.36,3.5-8.36,3.64l-5.45,0.09c-0.82,0-1.25,0.33-1.05,1.36c0.95,4.36,4.36,7.04,8.73,7.04
			c2.05,0,4.09-0.59,5.59-2.59L190.58,73.96z M175.39,64.92c-0.05,1.55,0.45,1.73,1.32,1.73l4.41-0.05
			c4.45-0.09,5.95-1.09,5.95-3.18c0-3.18-1.86-5.27-5.27-5.27C177.98,58.14,175.76,60.69,175.39,64.92z"/>
	</g>
</g>
</svg>
